<svg width="512" height="512" viewBox="0 0 512 512" fill="none" xmlns="http://www.w3.org/2000/svg">
  <!-- Background Circle with Scandinavian warmth -->
  <circle cx="256" cy="256" r="256" fill="#FAFAF9"/>
  <circle cx="256" cy="256" r="240" fill="#F0FDF4"/>
  
  <!-- Main Icon Container -->
  <g transform="translate(128, 128)">
    <!-- Streaming Symbol - Abstract broadcast waves -->
    <g stroke="#86EFAC" stroke-width="12" fill="none" stroke-linecap="round">
      <!-- Inner wave -->
      <path d="M128 64 C180 64, 192 92, 192 128 C192 164, 180 192, 128 192" opacity="1"/>
      <!-- Middle wave -->
      <path d="M128 32 C212 32, 224 76, 224 128 C224 180, 212 224, 128 224" opacity="0.7"/>
      <!-- Outer wave -->
      <path d="M128 0 C244 0, 256 60, 256 128 C256 196, 244 256, 128 256" opacity="0.4"/>
    </g>
    
    <!-- Central Broadcast Point -->
    <circle cx="128" cy="128" r="16" fill="#86EFAC"/>
    <circle cx="128" cy="128" r="8" fill="#FAFAF9"/>
    
    <!-- Profile/Stream Indicator -->
    <rect x="40" y="112" width="72" height="32" rx="8" fill="#86EFAC" opacity="0.8"/>
    <rect x="48" y="120" width="16" height="16" rx="4" fill="#FAFAF9"/>
    <rect x="72" y="122" width="32" height="4" rx="2" fill="#FAFAF9" opacity="0.9"/>
    <rect x="72" y="130" width="24" height="4" rx="2" fill="#FAFAF9" opacity="0.7"/>
  </g>
  
  <!-- Subtle shadow for depth -->
  <defs>
    <filter id="shadow" x="-20%" y="-20%" width="140%" height="140%">
      <feDropShadow dx="0" dy="4" stdDeviation="8" flood-color="rgba(0,0,0,0.1)"/>
    </filter>
  </defs>
  
  <!-- Apply shadow to main elements -->
  <style>
    .main-elements {
      filter: url(#shadow);
    }
  </style>
</svg>