<svg width="192" height="192" viewBox="0 0 192 192" fill="none" xmlns="http://www.w3.org/2000/svg">
  <!-- PWA Icon 192x192 -->
  <circle cx="96" cy="96" r="96" fill="#FAFAF9"/>
  <circle cx="96" cy="96" r="88" fill="#F0FDF4"/>
  
  <g transform="translate(48, 48)">
    <!-- Streaming Waves -->
    <g stroke="#86EFAC" stroke-width="4" fill="none" stroke-linecap="round">
      <path d="M48 24 C68 24, 72 34, 72 48 C72 62, 68 72, 48 72" opacity="1"/>
      <path d="M48 12 C80 12, 84 28, 84 48 C84 68, 80 84, 48 84" opacity="0.7"/>
      <path d="M48 0 C92 0, 96 22, 96 48 C96 74, 92 96, 48 96" opacity="0.4"/>
    </g>
    <!-- Central Point -->
    <circle cx="48" cy="48" r="6" fill="#86EFAC"/>
    <circle cx="48" cy="48" r="3" fill="#FAFAF9"/>
    <!-- Profile Indicator -->
    <rect x="15" y="42" width="27" height="12" rx="3" fill="#86EFAC" opacity="0.8"/>
    <rect x="19" y="46" width="6" height="4" rx="1" fill="#FAFAF9"/>
    <rect x="27" y="47" width="12" height="1" rx="0.5" fill="#FAFAF9"/>
    <rect x="27" y="49" width="9" height="1" rx="0.5" fill="#FAFAF9"/>
  </g>
</svg>