<svg width="512" height="512" viewBox="0 0 512 512" fill="none" xmlns="http://www.w3.org/2000/svg">
  <!-- Maskable Icon - Safe area design for Android adaptive icons -->
  <circle cx="256" cy="256" r="256" fill="#86EFAC"/>
  <circle cx="256" cy="256" r="180" fill="#F0FDF4"/>
  
  <g transform="translate(186, 186)">
    <!-- Simplified design for maskable icon -->
    <g stroke="#86EFAC" stroke-width="8" fill="none" stroke-linecap="round">
      <path d="M70 35 C95 35, 105 48, 105 70 C105 92, 95 105, 70 105" opacity="1"/>
      <path d="M70 17 C113 17, 123 40, 123 70 C123 100, 113 123, 70 123" opacity="0.7"/>
    </g>
    <!-- Central Point -->
    <circle cx="70" cy="70" r="10" fill="#86EFAC"/>
    <circle cx="70" cy="70" r="5" fill="#F0FDF4"/>
    <!-- Profile Indicator -->
    <rect x="25" y="60" width="36" height="20" rx="5" fill="#86EFAC" opacity="0.9"/>
    <rect x="30" y="65" width="10" height="10" rx="2" fill="#F0FDF4"/>
    <rect x="43" y="67" width="15" height="3" rx="1.5" fill="#F0FDF4"/>
    <rect x="43" y="72" width="12" height="3" rx="1.5" fill="#F0FDF4"/>
  </g>
</svg>